<svg id="Capa_1" enable-background="new 0 0 512 512" height="512" viewBox="0 0 512 512" width="512" xmlns="http://www.w3.org/2000/svg" xmlns:xlink="http://www.w3.org/1999/xlink"><linearGradient id="SVGID_1_" gradientUnits="userSpaceOnUse" x1="74.98" x2="437.019" y1="437.02" y2="74.981"><stop offset="0" stop-color="#560dff"/><stop offset=".2342" stop-color="#6351f6"/><stop offset=".5089" stop-color="#729bed"/><stop offset=".7373" stop-color="#7cd1e6"/><stop offset=".9074" stop-color="#83f2e2"/><stop offset="1" stop-color="#85ffe0"/></linearGradient><radialGradient id="SVGID_2_" cx="260.31" cy="213.307" gradientUnits="userSpaceOnUse" r="301.518"><stop offset="0" stop-color="#0056e0" stop-opacity=".8"/><stop offset=".1945" stop-color="#0074d3" stop-opacity=".644"/><stop offset=".747" stop-color="#00c5af" stop-opacity=".202"/><stop offset="1" stop-color="#00e5a1" stop-opacity="0"/></radialGradient><linearGradient id="lg1"><stop offset="0" stop-color="#73ecff"/><stop offset="1" stop-color="#fff"/></linearGradient><linearGradient id="SVGID_3_" gradientUnits="userSpaceOnUse" x1="164.43" x2="494.484" xlink:href="#lg1" y1="394.915" y2="64.861"/><linearGradient id="SVGID_4_" gradientUnits="userSpaceOnUse" x1="-15.513" x2="429.108" xlink:href="#lg1" y1="483.491" y2="38.87"/><linearGradient id="SVGID_5_" gradientUnits="userSpaceOnUse" x1="9.579" x2="244.845" xlink:href="#lg1" y1="362.222" y2="126.956"/><linearGradient id="SVGID_6_" gradientUnits="userSpaceOnUse" x1="-72.27" x2="206.924" xlink:href="#lg1" y1="431.314" y2="152.12"/><linearGradient id="lg2"><stop offset="0" stop-color="#3ca1ff"/><stop offset=".137" stop-color="#47affa"/><stop offset=".7197" stop-color="#74e9e7"/><stop offset="1" stop-color="#85ffe0"/></linearGradient><linearGradient id="SVGID_7_" gradientUnits="userSpaceOnUse" x1="300.407" x2="448.719" xlink:href="#lg2" y1="424.642" y2="276.33"/><linearGradient id="SVGID_8_" gradientUnits="userSpaceOnUse" x1="274.291" x2="420.425" xlink:href="#lg2" y1="434.26" y2="288.126"/><linearGradient id="SVGID_9_" gradientUnits="userSpaceOnUse" x1="118.869" x2="263.183" xlink:href="#lg2" y1="423.494" y2="279.179"/><linearGradient id="SVGID_10_" gradientUnits="userSpaceOnUse" x1="81.642" x2="255.307" xlink:href="#lg2" y1="443.947" y2="270.281"/><linearGradient id="SVGID_11_" gradientUnits="userSpaceOnUse" x1="92.625" x2="236.105" xlink:href="#lg2" y1="432.963" y2="289.483"/><linearGradient id="SVGID_12_" gradientUnits="userSpaceOnUse" x1="209.096" x2="376.231" xlink:href="#lg2" y1="449.933" y2="282.798"/><linearGradient id="SVGID_13_" gradientUnits="userSpaceOnUse" x1="172.239" x2="398.178" xlink:href="#lg2" y1="468.191" y2="242.252"/><linearGradient id="SVGID_14_" gradientUnits="userSpaceOnUse" x1="178.966" x2="356.577" xlink:href="#lg2" y1="461.463" y2="283.852"/><g><circle cx="256" cy="256" fill="url(#SVGID_1_)" r="256"/><circle cx="256" cy="256" fill="url(#SVGID_2_)" r="256"/><path d="m469.727 204.458c-89.154-1.052-178.307-1.446-267.461-1.182-.068 23.033-.092 46.066-.071 69.098 72.082.066 144.163-.001 216.245-.201 29.704-.144 53.934-23.75 53.677-52.674-.045-5.218-.881-10.263-2.39-15.041z" fill="url(#SVGID_3_)"/><path d="m469.727 204.458c-5.45-17.224-19.675-30.991-37.387-36.2-3.51-34.947-33.732-63.371-69.518-64.052-3.229-.055-6.399.124-9.503.511-17.168-37.866-54.494-64.998-97.319-64.992-57.701.064-106.027 49.365-106.963 108.281-.383 31.244-.6 62.487-.651 93.73 90.019-.145 180.039-.108 270.058.111 24.375.033 44.944-15.793 51.283-37.389z" fill="url(#SVGID_4_)"/><path d="m42.273 204.458c-1.509 4.777-2.345 9.822-2.39 15.042-.257 28.925 23.973 52.531 53.677 52.674 36.212.101 72.423.167 108.635.201 21.46.024 39.98-12.544 48.62-30.725-69.609-12.812-139.177-25.501-208.542-37.192z" fill="url(#SVGID_5_)"/><path d="m216.963 166.871c-2.8-35.534-31.99-63.327-67.785-62.665-35.786.68-66.008 29.105-69.518 64.052-17.711 5.208-31.936 18.976-37.387 36.2 6.339 21.593 26.908 37.422 51.282 37.389 52.42-.127 104.84-.193 157.26-.197 3.322-6.992 5.185-14.808 5.185-23.063-.009-24.648-16.551-45.434-39.037-51.716z" fill="url(#SVGID_6_)"/><path d="m302.156 349.268c-5.035 8.191-7.965 17.809-8.014 28.101-.095 29.704 23.441 53.651 52.63 53.128 27.515-.499 50.733-22.322 53.829-49.376-32.661-10.29-65.495-20.965-98.445-31.853z" fill="url(#SVGID_7_)"/><path d="m354.73 407.42c19.164-.312 36.177-10.884 45.871-26.298.186-1.653.306-3.321.338-5.01.212-11.293-3.169-21.697-9.1-30.246.126.102-38.648-55.608-38.738-55.693-1.079-1.538-2.867-2.545-4.899-2.538-2.031.007-3.827 1.023-4.911 2.571-.004-.038-39.457 56.407-39.437 56.432-.582.859-1.148 1.737-1.697 2.631-.161 1.656-.256 3.326-.264 5.023-.099 29.696 23.524 53.624 52.837 53.128z" fill="url(#SVGID_8_)"/><path d="m118.495 348.443c-4.888 8.028-7.625 17.483-7.434 27.667.595 29.337 24.982 53.849 54.167 54.386 27.52.491 49.981-20.754 52.413-48.072-32.93-11.21-65.998-22.594-99.146-33.981z" fill="url(#SVGID_9_)"/><path d="m172.459 407.645c19.167.267 35.865-9.868 45.182-25.22.146-1.664.226-3.35.217-5.056-.055-11.415-3.644-22.004-9.727-30.732.035-.024-39.418-56.471-39.417-56.432-1.089-1.546-2.884-2.563-4.915-2.571-2.032-.007-3.82 1-4.895 2.538-.094.088-38.868 55.796-38.758 55.693-.567.84-1.118 1.705-1.651 2.579-.131 1.636-.195 3.294-.171 4.974.459 29.374 24.826 53.794 54.135 54.227z" fill="url(#SVGID_10_)"/><path d="m172.459 407.645c19.167.267 35.865-9.868 45.182-25.22.146-1.664.226-3.35.217-5.056-.055-11.415-3.644-22.004-9.727-30.732.035-.024-39.418-56.471-39.417-56.432-1.089-1.546-2.884-2.563-4.915-2.571-2.032-.007-3.82 1-4.895 2.538-.094.088-38.868 55.796-38.758 55.693-.567.84-1.118 1.705-1.651 2.579-.131 1.636-.195 3.294-.171 4.974.459 29.374 24.826 53.794 54.135 54.227z" fill="url(#SVGID_11_)"/><path d="m205.012 356.587c-1.574 2.278-3.146 4.555-4.717 6.831-7.667 11.134-12.094 24.66-11.938 39.31.497 38.069 31.234 69.54 68.397 69.546 32.336-.005 59.708-23.826 66.727-55.026-39.113-19.796-78.68-40.168-118.469-60.661z" fill="url(#SVGID_12_)"/><path d="m312.453 363.413c.148.077-50.059-72.291-50.144-72.34-1.393-1.993-3.697-3.298-6.309-3.299-2.612 0-4.916 1.306-6.303 3.299-.072.039-45.552 65.57-45.454 65.51-1.127 5.004-1.71 10.216-1.675 15.578.33 38.116 31.107 69.448 68.532 69.34 20.492-.06 38.93-9.513 51.62-24.244 1.045-4.695 1.635-9.555 1.688-14.537.157-14.648-4.269-28.175-11.955-39.307z" fill="url(#SVGID_13_)"/><path d="m312.453 363.413c.148.077-50.059-72.291-50.144-72.34-1.393-1.993-3.697-3.298-6.309-3.299-2.612 0-4.916 1.306-6.303 3.299-.072.039-45.552 65.57-45.454 65.51-1.127 5.004-1.71 10.216-1.675 15.578.33 38.116 31.107 69.448 68.532 69.34 20.492-.06 38.93-9.513 51.62-24.244 1.045-4.695 1.635-9.555 1.688-14.537.157-14.648-4.269-28.175-11.955-39.307z" fill="url(#SVGID_14_)"/></g></svg>